<?xml version="1.0" standalone="no"?>
<!DOCTYPE svg PUBLIC "-//W3C//DTD SVG 20010904//EN"
 "http://www.w3.org/TR/2001/REC-SVG-20010904/DTD/svg10.dtd">
<svg version="1.0" xmlns="http://www.w3.org/2000/svg"
 width="584.000000pt" height="584.000000pt" viewBox="0 0 584.000000 584.000000"
 preserveAspectRatio="xMidYMid meet">
<metadata>
Created by potrace 1.14, written by Peter Selinger 2001-2017
</metadata>
<g transform="translate(0.000000,584.000000) scale(0.100000,-0.100000)"
fill="#000000" stroke="none">
<path d="M3987 4094 c-1 -1 -31 -4 -67 -7 -368 -32 -715 -259 -983 -644 -21
-29 -37 -56 -37 -59 0 -3 -9 -19 -21 -35 -84 -118 -213 -458 -234 -619 -3 -25
-8 -53 -11 -62 -15 -52 -9 -336 9 -418 2 -8 7 -31 11 -50 25 -107 88 -216 176
-300 168 -163 483 -226 790 -159 56 12 228 95 322 155 87 56 133 67 143 33 9
-26 8 -124 -1 -152 -5 -16 -1 -18 32 -15 l38 3 37 165 c42 187 137 556 151
583 5 9 5 18 1 18 -65 10 -63 10 -90 -49 -67 -149 -136 -287 -170 -336 -104
-148 -232 -250 -398 -314 -327 -126 -580 -42 -684 228 -16 41 -32 95 -35 120
-4 25 -9 59 -13 75 -7 37 -7 267 1 321 3 21 8 58 11 82 3 23 18 98 34 165 87
361 266 707 486 935 179 187 359 277 550 275 223 -3 399 -142 450 -355 15 -63
14 -294 -1 -345 -4 -16 -2 -23 7 -24 8 0 24 -2 36 -5 19 -3 24 2 32 34 5 20
28 116 51 212 23 96 66 248 95 338 l53 162 -33 0 c-30 0 -34 -4 -60 -66 -35
-82 -69 -124 -101 -124 -15 0 -45 20 -81 54 -143 134 -228 172 -406 179 -48 2
-88 2 -90 1z"/>
<path d="M1784 3913 c-60 -85 -115 -162 -122 -171 -16 -21 -340 -477 -667
-937 -136 -192 -266 -375 -287 -405 -298 -419 -364 -496 -470 -549 -59 -29
-77 -48 -78 -81 0 -3 137 -5 305 -5 168 0 305 0 305 0 0 0 4 14 9 30 l8 31
-48 2 c-26 1 -73 11 -104 23 -69 26 -89 58 -83 134 7 79 49 160 191 360 42 61
83 118 90 128 6 11 29 42 50 70 21 29 42 59 47 67 7 13 63 15 405 16 218 0
398 -2 400 -5 1 -4 6 -71 10 -151 3 -80 9 -176 11 -215 23 -305 0 -376 -130
-409 -33 -9 -79 -18 -101 -20 -22 -3 -41 -5 -41 -6 -1 0 -4 -12 -6 -27 l-4
-28 373 0 373 0 0 23 c0 12 0 25 0 30 0 4 -13 10 -29 15 -43 11 -87 59 -105
114 -8 27 -18 98 -21 158 -4 61 -8 126 -10 145 -2 19 -6 89 -10 155 -3 66 -8
138 -10 160 -2 22 -7 94 -10 160 -3 66 -8 138 -10 160 -3 22 -7 92 -10 155 -3
63 -8 144 -11 180 -2 36 -6 94 -9 130 -7 112 -18 283 -20 320 -2 19 -6 91 -10
160 -4 69 -9 139 -10 155 -2 17 -3 41 -4 55 -1 19 -7 25 -25 26 -19 1 -42 -24
-132 -153z m-99 -339 c2 -43 7 -131 10 -194 3 -63 8 -146 10 -185 3 -38 7
-115 10 -170 2 -55 8 -153 11 -217 l6 -118 -371 0 c-273 0 -370 3 -365 11 6
11 239 342 270 384 8 11 103 145 211 298 108 152 198 276 200 274 2 -2 5 -39
8 -83z"/>
<path d="M4793 2110 c-150 -67 -205 -263 -101 -356 151 -137 423 100 328 286
-41 80 -137 110 -227 70z"/>
</g>
</svg>
